<svg xmlns="http://www.w3.org/2000/svg" xmlns:xlink="http://www.w3.org/1999/xlink" width="14.3" height="13.3" viewBox="0 0 14.3 13.3"><defs><style>.cls-1,.cls-4,.cls-5{fill:none;}.cls-2{clip-path:url(#clip-path);}.cls-3{fill:#fff;}.cls-4,.cls-5{stroke:#8f2184;stroke-miterlimit:10;}.cls-5{stroke-width:0.7px;}</style><clipPath id="clip-path" transform="translate(-0.5 -2.4)"><rect id="SVGID" class="cls-1" width="16.8" height="18"/></clipPath></defs><title>Asset 3read-icon</title><g id="Layer_2" data-name="Layer 2"><g id="Layer_1-2" data-name="Layer 1"><g class="cls-2"><path class="cls-3" d="M10.1,5.3a2.4,2.4,0,0,1-4.8,0,2.4,2.4,0,0,1,4.8,0" transform="translate(-0.5 -2.4)"/><path class="cls-4" d="M10.1,5.3a2.4,2.4,0,0,1-4.8,0,2.4,2.4,0,0,1,4.8,0" transform="translate(-0.5 -2.4)"/><path class="cls-3" d="M1.7,14.9a10.8,10.8,0,0,1,3.1-.7,9.8,9.8,0,0,1,3,.7V6.6a6.4,6.4,0,0,0-3-.7,8.2,8.2,0,0,0-3,.7Z" transform="translate(-0.5 -2.4)"/><path class="cls-4" d="M1.7,14.9a10.8,10.8,0,0,1,3.1-.7,9.8,9.8,0,0,1,3,.7V6.6a6.4,6.4,0,0,0-3-.7,8.2,8.2,0,0,0-3,.7Z" transform="translate(-0.5 -2.4)"/><path class="cls-3" d="M7.8,14.9a7.4,7.4,0,0,1,3-.7,9.9,9.9,0,0,1,3.1.7V6.6a7,7,0,0,0-3.1-.8,9.8,9.8,0,0,0-3.1.8Z" transform="translate(-0.5 -2.4)"/><path class="cls-4" d="M7.8,14.9a7.4,7.4,0,0,1,3-.7,9.9,9.9,0,0,1,3.1.7V6.6a7,7,0,0,0-3.1-.8,9.8,9.8,0,0,0-3.1.8Z" transform="translate(-0.5 -2.4)"/><path class="cls-3" d="M14.5,10.2a1.3,1.3,0,0,1-1.2,1.2,1.2,1.2,0,0,1-1.2-1.2A1.2,1.2,0,0,1,13.3,9a1.2,1.2,0,0,1,1.2,1.2" transform="translate(-0.5 -2.4)"/><path class="cls-5" d="M14.5,10.2a1.3,1.3,0,0,1-1.2,1.2,1.2,1.2,0,0,1-1.2-1.2A1.2,1.2,0,0,1,13.3,9,1.2,1.2,0,0,1,14.5,10.2Z" transform="translate(-0.5 -2.4)"/><path class="cls-3" d="M3.2,10.3A1.2,1.2,0,0,1,2,11.5,1.2,1.2,0,0,1,.9,10.3,1.1,1.1,0,0,1,2,9.1a1.2,1.2,0,0,1,1.2,1.2" transform="translate(-0.5 -2.4)"/><path class="cls-5" d="M3.2,10.3A1.2,1.2,0,0,1,2,11.5,1.2,1.2,0,0,1,.9,10.3,1.1,1.1,0,0,1,2,9.1,1.2,1.2,0,0,1,3.2,10.3Z" transform="translate(-0.5 -2.4)"/></g></g></g></svg>