<svg xmlns="http://www.w3.org/2000/svg" width="44.9" height="47.4" viewBox="0 0 44.9 47.4"><defs><style>.cls-1{fill:#201d1d;}</style></defs><title>Asset 10art-icon</title><g id="Layer_2" data-name="Layer 2"><g id="Layer_1-2" data-name="Layer 1"><path class="cls-1" d="M37.1,9.2c-3.5,6.9-8.5,15.2-8.5,15.2l-5.9-3.6s5.8-8.3,10.7-14.4c-6.7-4.2-14-3.7-15.2,4.9C16,26.7,3.2,19.6.5,27.8-4.6,43.3,29.9,58.2,42,36.4c6-10.6,1.7-21.1-4.9-27.2M8.7,34.9c-1.8,0-4.3-1.9-4.3-3.7s1.9-3.1,3.7-3.1,3.9,1.3,3.9,3-1.6,3.8-3.3,3.8m5.9,2.8s3.5-2.5,2.2-5.3c-.6-1.3.3-3.4,1.5-4.2s4.3,1.3,4.6,3.5-2.8,4.2-4.5,5a13.3,13.3,0,0,1-3.8,1m8.3,6.4c-1.4,0-3.5-1.7-3.5-3.1s2.7-2.8,4.1-2.8a3.1,3.1,0,0,1,2.8,3c0,1.4-2,2.9-3.4,2.9m1-14a6.6,6.6,0,0,0-1.8-1.9,7.5,7.5,0,0,0-2.6-1.3l3.4-5.4,4.8,3.1Zm12,8.4a4.1,4.1,0,0,1-5.6-1.6c-.9-2,.2-4.3,2.4-5.4a4.2,4.2,0,0,1,5.6,1.7c.9,1.9-.2,4.3-2.4,5.3m2.4-12.6A3.1,3.1,0,0,1,35.1,23c0-1.6,1.8-3.8,3.6-3.8s3.6,2.3,3.6,3.9-2.1,2.8-4,2.8M37.1,9.3a16.9,16.9,0,0,0-3.7-2.9C36.6,2.5,39.5-.5,40.3.1s-.8,4.6-3.2,9.2"/></g></g></svg>