<svg xmlns="http://www.w3.org/2000/svg" width="60.4" height="55.2" viewBox="0 0 60.4 55.2"><defs><style>.cls-1{fill:#201d1d;}.cls-2,.cls-3{fill:none;stroke:#201d1d;stroke-linecap:round;stroke-miterlimit:10;}.cls-2{stroke-width:2.78px;}.cls-3{stroke-width:2.32px;}</style></defs><title>Asset 5chat-icon</title><g id="Layer_2" data-name="Layer 2"><g id="Layer_1-2" data-name="Layer 1"><path class="cls-1" d="M60.4,34.7c0-7.4-8.9-13.5-20-13.5s-20,6.1-20,13.5,9,13.5,20,13.5h2.2c3,4,9.6,7.1,9.6,7.1a85.3,85.3,0,0,1-2.6-8.5c6.5-2.3,10.8-6.8,10.8-12m-6.7,5.5H32.1A1.2,1.2,0,0,1,30.9,39c0-1.1,1.2-1.1,1.2-1.1H53.7a1,1,0,0,1,1,1.1,1.1,1.1,0,0,1-1,1.2m1.4-6.5H42.4a1.2,1.2,0,0,1,0-2.3H55.1a1.1,1.1,0,0,1,1.1,1.1c0,1.3-1.1,1.2-1.1,1.2"/><path class="cls-2" d="M23,1.4C11.1,1.4,1.4,7.9,1.4,15.9c0,5.7,4.7,10.5,11.7,12.9a92.7,92.7,0,0,1-2.8,9.3s7.2-3.4,10.3-7.7H23c12,0,21.7-6.5,21.7-14.6S35,1.4,23,1.4Z"/><line class="cls-3" x1="11.7" y1="11.7" x2="35.1" y2="11.7"/><line class="cls-3" x1="11.7" y1="20.1" x2="35.1" y2="20.1"/></g></g></svg>