<svg xmlns="http://www.w3.org/2000/svg" xmlns:xlink="http://www.w3.org/1999/xlink" width="52.8" height="60.1" viewBox="0 0 52.8 60.1"><defs><style>.cls-1{fill:none;}.cls-2{clip-path:url(#clip-path);}.cls-3{fill:#201d1d;}</style><clipPath id="clip-path" transform="translate(0)"><rect id="SVGID" class="cls-1" width="52.8" height="60.1"/></clipPath></defs><title>Asset 5grammar-icon</title><g id="Layer_2" data-name="Layer 2"><g id="Layer_1-2" data-name="Layer 1"><g class="cls-2"><path class="cls-3" d="M41.9,3.7C44.1,1.2,49,0,52.3,0l.5,1L47.1,7.7,34.4,24.5,25.5,38.2l-2.1,3.6a4.6,4.6,0,0,1-1.3,1.8,13.4,13.4,0,0,1-3.5.3c-1.9,0-2.3,0-2.8-.3a5.4,5.4,0,0,1-1.3-2.1c-1.4-2.8-3.8-9-3.8-12,0-1,.7-1.5,1.5-2.1a9,9,0,0,1,4.7-2c1.2,0,1.3,1.1,1.7,2.1l1.2,2.9c.2.4.7,2.1,1.4,2.1s1.3-1.4,1.6-1.8l14.1-21Z" transform="translate(0)"/><path class="cls-3" d="M40.3,21.1V38.6A3.5,3.5,0,0,1,38,42.1c-2.1.8-4.3,1-8.7,1a2.1,2.1,0,0,0-1.5.5,2,2,0,0,0-.6,1.4c.2,3.6.2,8.8-1.4,10.4a2.7,2.7,0,0,1-2.2,1H3.7V7.9H35.4l3-3.7H1.9A1.8,1.8,0,0,0,0,6V58.2a1.8,1.8,0,0,0,1.9,1.9H24.7A8.3,8.3,0,0,0,28.4,59c1.7-1,11.9-11.9,13.1-13.3S44,42.4,44,37.6V16Z" transform="translate(0)"/></g></g></g></svg>