<svg xmlns="http://www.w3.org/2000/svg" xmlns:xlink="http://www.w3.org/1999/xlink" width="64.4" height="48.9" viewBox="0 0 64.4 48.9"><defs><style>.cls-1{fill:none;}.cls-2{clip-path:url(#clip-path);}.cls-3{fill:#201d1d;}</style><clipPath id="clip-path" transform="translate(0 0)"><rect id="SVGID" class="cls-1" width="64.4" height="48.93"/></clipPath></defs><title>Asset 4art-icon</title><g id="Layer_2" data-name="Layer 2"><g id="Layer_1-2" data-name="Layer 1"><g class="cls-2"><path class="cls-3" d="M32.2,4.9C27.9,1.6,23.9,0,19.8,0S12.2,1.6,9.1,3.1,4.2,5.4,1.8,5.5L0,5.7V8c.3,4.5.1,26.6,0,36v4.7H1.9A29.4,29.4,0,0,0,14.4,46a14.4,14.4,0,0,1,6.1-1.7c2.8,0,6.3,1.3,10.7,4l1,.6V4.9h0M30.1,43.7a20.6,20.6,0,0,0-9.6-2.8c-3.1,0-5.6,1.1-8,2.1a31,31,0,0,1-9.1,2.3c.1-8.5.2-29.4,0-36.6a38.5,38.5,0,0,0,7.7-2.5c2.9-1.4,5.6-2.7,8.7-2.7S26.4,5,30.1,8Z" transform="translate(0 0)"/><path class="cls-3" d="M32.2,4.9v44l.9-.6c4.5-2.7,7.9-4,10.7-4A14.5,14.5,0,0,1,50,46a29,29,0,0,0,12.5,2.7h1.8V44c-.1-9.4-.2-31.5,0-36V5.7l-1.8-.2c-2.4-.1-4.8-1.2-7.3-2.4S48.7,0,44.6,0,36.4,1.6,32.2,4.9h0M34.3,8c3.7-3,7-4.5,10.3-4.5s5.8,1.3,8.7,2.7a35.4,35.4,0,0,0,7.4,2.3c-.1,7.2,0,28,.1,36.5a27.8,27.8,0,0,1-9-2c-2.4-1-4.8-2.1-8-2.1a20.6,20.6,0,0,0-9.5,2.8Z" transform="translate(0 0)"/></g></g></g></svg>