<svg xmlns="http://www.w3.org/2000/svg" xmlns:xlink="http://www.w3.org/1999/xlink" width="63.3" height="56.6" viewBox="0 0 63.3 56.6"><defs><style>.cls-1,.cls-3{fill:none;}.cls-2{clip-path:url(#clip-path);}.cls-3{stroke:#201d1d;stroke-miterlimit:10;stroke-width:3.29px;}.cls-4{fill:#fff;}</style><clipPath id="clip-path" transform="translate(-11.2 -12.4)"><rect id="SVGID" class="cls-1" width="84.8" height="79.67"/></clipPath></defs><title>Asset 3reader-icon</title><g id="Layer_2" data-name="Layer 2"><g id="Layer_1-2" data-name="Layer 1"><g class="cls-2"><path class="cls-3" d="M32.9,26.8a8.5,8.5,0,0,1-.3-2.3,10.5,10.5,0,0,1,20.9-.1" transform="translate(-11.2 -12.4)"/><path class="cls-4" d="M53.5,24.4a7.5,7.5,0,0,1-.2,2.1" transform="translate(-11.2 -12.4)"/><path class="cls-3" d="M53.5,24.4a7.5,7.5,0,0,1-.2,2.1" transform="translate(-11.2 -12.4)"/><path class="cls-3" d="M16.7,51.1V66.5s7.8-3.4,13.3-3.4,13.3,3.3,13.3,3.3V30.1a28.5,28.5,0,0,0-13.4-3.2,32.9,32.9,0,0,0-13.2,3.3v9.9" transform="translate(-11.2 -12.4)"/><path class="cls-3" d="M70.1,41V30.1a29.4,29.4,0,0,0-13.5-3.3,33.2,33.2,0,0,0-13.4,3.3V66.4s7.8-3.4,13.5-3.3,13.4,3.3,13.4,3.3V50.7" transform="translate(-11.2 -12.4)"/><path class="cls-3" d="M72.8,45.7a5.2,5.2,0,0,1-5.2,5.2,5.2,5.2,0,0,1-5.3-5.2,5.3,5.3,0,0,1,5.3-5.2A5.2,5.2,0,0,1,72.8,45.7Z" transform="translate(-11.2 -12.4)"/><path class="cls-3" d="M23.3,46.1A5.3,5.3,0,1,1,18,40.9,5.2,5.2,0,0,1,23.3,46.1Z" transform="translate(-11.2 -12.4)"/></g></g></g></svg>