<svg xmlns="http://www.w3.org/2000/svg" xmlns:xlink="http://www.w3.org/1999/xlink" width="40.7" height="58.9" viewBox="0 0 40.7 58.9"><defs><style>.cls-1,.cls-4,.cls-5,.cls-6{fill:none;}.cls-2{clip-path:url(#clip-path);}.cls-3{fill:#201d1d;}.cls-4,.cls-5,.cls-6{stroke:#201d1d;}.cls-4{stroke-linejoin:bevel;stroke-width:6.69px;}.cls-5{stroke-miterlimit:10;stroke-width:2.1px;}.cls-6{stroke-linecap:round;stroke-linejoin:round;stroke-width:3.35px;}</style><clipPath id="clip-path" transform="translate(-3.5 -0.1)"><rect id="SVGID" class="cls-1" width="49.1" height="65.86"/></clipPath></defs><title>Asset 6science-icon</title><g id="Layer_2" data-name="Layer 2"><g id="Layer_1-2" data-name="Layer 1"><g class="cls-2"><path class="cls-3" d="M4.3,55.4a1.1,1.1,0,0,0-.8,1v1.8a.9.9,0,0,0,.8.8H38.6a.9.9,0,0,0,.9-.8V56.3a1.2,1.2,0,0,0-.9-1.1l-7.4-1.7a1.3,1.3,0,0,1-.9-1V51.1a1,1,0,0,0-.9-.9H23.2a.9.9,0,0,0-.8.9v1.1a1,1,0,0,1-.9.9Z" transform="translate(-3.5 -0.1)"/><path class="cls-3" d="M18.7,26.8a.8.8,0,0,1-.9.4L10.3,25a.7.7,0,0,1-.5-.8L15,6.7a.7.7,0,0,1,.8-.5l7.6,2.2a.8.8,0,0,1,.4.9Z" transform="translate(-3.5 -0.1)"/><path class="cls-3" d="M15.9,30.2a.7.7,0,0,1-.8.4l-5-1.5a.6.6,0,0,1-.5-.8l.4-1.2a.6.6,0,0,1,.8-.5l5,1.5a.7.7,0,0,1,.5.8Z" transform="translate(-3.5 -0.1)"/><path class="cls-3" d="M14.5,31.8c.1-.2,0-.3-.2-.4l-4.2-1.2c-.2-.1-.4,0-.4.2l-.2.7c-.1.2,0,.4.2.4l4.2,1.2c.2.1.4,0,.4-.2Z" transform="translate(-3.5 -0.1)"/><path class="cls-3" d="M24,5.6a.7.7,0,0,1-.8.5L17.5,4.4a.6.6,0,0,1-.4-.8l.9-3a.7.7,0,0,1,.8-.5l5.6,1.7a.6.6,0,0,1,.5.8Z" transform="translate(-3.5 -0.1)"/><path class="cls-3" d="M24.5,6.9a.4.4,0,0,1-.5.2L16.2,4.8c-.2-.1-.3-.2-.2-.4l.3-.9c0-.2.2-.3.4-.3l7.8,2.4c.2,0,.3.2.2.4Z" transform="translate(-3.5 -0.1)"/><path class="cls-4" d="M27.3,17s12.9,1.4,13.5,13.8c.7,15-11.3,15.8-11.3,15.8" transform="translate(-3.5 -0.1)"/><path class="cls-5" d="M30.2,47.1a4.1,4.1,0,1,1-8.1,0,4.1,4.1,0,0,1,8.1,0Z" transform="translate(-3.5 -0.1)"/><path class="cls-3" d="M23.9,11.4a5,5,0,0,0-5.1,5,5.1,5.1,0,0,0,10.2,0,5,5,0,0,0-5.1-5m.2,7.2a2.2,2.2,0,0,1-2.2-2.2,2.2,2.2,0,0,1,4.4,0,2.2,2.2,0,0,1-2.2,2.2" transform="translate(-3.5 -0.1)"/><line class="cls-6" x1="2.4" y1="40.8" x2="24.4" y2="40.8"/></g></g></g></svg>