<svg xmlns="http://www.w3.org/2000/svg" xmlns:xlink="http://www.w3.org/1999/xlink" width="62.8" height="62.8" viewBox="0 0 62.8 62.8"><defs><style>.cls-1{fill:none;}.cls-2{clip-path:url(#clip-path);}.cls-3{fill:#201d1d;}</style><clipPath id="clip-path" transform="translate(-3.1)"><rect id="SVGID" class="cls-1" width="65.8" height="62.81"/></clipPath></defs><title>Asset 7socail-icon</title><g id="Layer_2" data-name="Layer 2"><g id="Layer_1-2" data-name="Layer 1"><g class="cls-2"><path class="cls-3" d="M34.4,62.8a31.2,31.2,0,0,0,22.2-9.2,30.8,30.8,0,0,0,9.2-22.2A30.8,30.8,0,0,0,56.6,9.2,31.4,31.4,0,1,0,34.4,62.8m2.8-31.4,7.6-7.6,6.7,6.8a34.7,34.7,0,0,1-6.2,8.9Zm5.3,10.8A37.3,37.3,0,0,1,33.7,48l-6.6-6.5,7.3-7.3ZM34.4,28.6l-8.1-8.1a38.5,38.5,0,0,1,8.9-6.2L42,21.1Zm-2.7,2.8-7.3,7.3-6.6-6.6a43.2,43.2,0,0,1,5.8-8.8ZM21.6,41.5,14,49.1A40.5,40.5,0,0,1,16.2,36Zm2.8,2.7,5.4,5.4a38,38,0,0,1-13.1,2.3Zm10,14.7a27.3,27.3,0,0,1-13.2-3.4,43.8,43.8,0,0,0,11.6-2.8l5.9,5.9a30,30,0,0,1-4.3.3m8.8-1.4-6.6-6.6A46,46,0,0,0,45.3,45l7.2,7.2a27,27,0,0,1-9.3,5.3m12-8.1-7.1-7.1a45.5,45.5,0,0,0,6.3-8.8l6.2,6.2a25.8,25.8,0,0,1-5.4,9.7m3.9-30.2a28.3,28.3,0,0,1,2.8,12.2c0,1.3-.1,2.6-.2,3.8l-5.5-5.4a41.5,41.5,0,0,0,2.9-10.6m-3.5-5.4a37.5,37.5,0,0,1-2.4,13l-5.7-5.7,7.7-7.7c.1.1.2.3.4.4m-3.1-3.2-7.7,7.7L39,12.6a37.8,37.8,0,0,1,13-2.3l.5.3M34.4,3.9A28.3,28.3,0,0,1,46.6,6.7,42.7,42.7,0,0,0,36,9.6L30.6,4.2a24.3,24.3,0,0,1,3.8-.3M26.1,5.2l6.2,6.2a39.1,39.1,0,0,0-8.7,6.4l-7.2-7.2a27.4,27.4,0,0,1,9.7-5.4M13.7,13.4l7.2,7.2a42.8,42.8,0,0,0-6,8.6L8.4,22.7a26.4,26.4,0,0,1,5.3-9.3M7.3,27.1,13.2,33a41.2,41.2,0,0,0-2.9,11.6,28.2,28.2,0,0,1-3-17.5" transform="translate(-3.1)"/></g></g></g></svg>