<svg xmlns="http://www.w3.org/2000/svg" xmlns:xlink="http://www.w3.org/1999/xlink" width="14.9" height="14.8" viewBox="0 0 14.9 14.8"><defs><style>.cls-1{fill:none;}.cls-2{clip-path:url(#clip-path);}.cls-3{fill:#8e2283;}</style><clipPath id="clip-path" transform="translate(0 -0.7)"><rect id="SVGID" class="cls-1" width="14.9" height="15.55"/></clipPath></defs><title>Asset 2users-icon</title><g id="Layer_2" data-name="Layer 2"><g id="Layer_1-2" data-name="Layer 1"><g class="cls-2"><path class="cls-3" d="M14.9,15.5H6.4c0-2.1.2-3.9,1.8-4.9a3.7,3.7,0,0,0,2.5.9,3.6,3.6,0,0,0,2.3-.8c1.7.9,1.9,2.7,1.9,4.8" transform="translate(0 -0.7)"/><path class="cls-3" d="M5.6,12H0C0,9.8.2,8,1.9,7.1a3.8,3.8,0,0,0,2.4.8,4.1,4.1,0,0,0,2.4-.8c0,.1-.1.2-.1.3a4,4,0,0,0,1,2.6,6.4,6.4,0,0,0-2,2" transform="translate(0 -0.7)"/><path class="cls-3" d="M4.2.7A3.2,3.2,0,1,0,7.3,3.8,3.1,3.1,0,0,0,4.2.7Z" transform="translate(0 -0.7)"/><path class="cls-3" d="M10.7,4.3h0a3.1,3.1,0,0,0-3.2,3,3.1,3.1,0,0,0,3.1,3.3h.1a3.1,3.1,0,0,0,3.1-3.1A3.1,3.1,0,0,0,10.7,4.3Z" transform="translate(0 -0.7)"/></g></g></g></svg>